<?xml version="1.0" encoding="UTF-8"?><svg id="Layer_1" xmlns="http://www.w3.org/2000/svg" viewBox="0 0 1187.06 556.68"><path d="M1112.77,401.65c-20.77,14.62-48.68,23.36-70.89,8.77-10.83-7.11-16.01-18.77-14.35-32.16-5.47,3.23-9.08,8-13.28,12.33-14.62,15.04-31.29,26.77-53.1,27.6-12.65.48-25.04-3.71-33.68-12.97-17.03-18.26,7.45-67.89,17.42-89.24l17.23-36.93c2.79-5.99,7.02-18.08,3.36-21.46-3.28-3.02-13.21,1.1-18.3,4.15-13.28,7.96-24.92,17.82-36.22,28.5-16.55,15.63-30.23,33.38-44.08,51.35-7.1,9.21-12.58,18.81-18.01,29.1-8.67,16.44-20.09,37.76-37.73,44.74-4.45,1.76-9.77,1.17-14.29.42-7.26-1.21-11.27-6.91-12.1-13.98-.47-4.01.6-7.82-.8-12.54-17.89,21.19-52.86,33.83-78.73,26.59-20.34-5.69-26.76-23.25-24.6-43.31-11.09,10.9-21.4,20.87-33.44,29.6-16.53,11.98-36.43,17.97-56.62,15.07-14.9-2.14-25.7-12.31-29.05-26.86-4.83-20.97,2.98-42.83,12.5-61.81l30.52-60.91-22.87-7.61-12.94-6.45c-33.83,56.47-72.23,117.52-128.24,154.06-27.03,17.63-69.78,15.85-80.21-13.62-2.96-8.37-2.35-16.81-1.06-26.03-7.39,3.24-11.03,9.61-16.72,14.26-44.51,36.35-88.35,55.61-141.85,74.86-5.88,2.11-20.44,6.28-21.25,3.31-.25-.92.18-2.46,1.35-3.07l54.26-28.62c17.3-9.12,33.69-18.82,49.78-29.91,21.15-14.58,41.34-30.34,59.09-48.81,16.49-17.16,29.42-36.28,39.11-57.95l31.39-70.2c3.62-8.1,7.76-15.4,13.84-21.78,5.5-5.77,13.39-10.77,21.64-9.06,4.68.97,6.72,7.77,7.15,12.12.95,9.54-.68,18.52-3.44,27.62l-8.38,27.67-19.18,44.05c-10.36,23.8-22.62,53.03-20.95,79.04,11.6,9.69,25.52,2.11,36.24-7.15l14.48-12.5c31.33-30.22,58.33-69.7,79.74-107.69,5.74-10.19,10.7-19.66,3.17-28.46-4.81-5.61-5.03-13.55-1.67-20.03,6.35-12.26,19.21-17.98,33.22-15.87,5.65,2.32,10.03,8.18,10.69,14.65-2.52,8.83.93,17.37,9.21,21.79,19.41,10.37,32.94,4.58,50,11.61,9.66,3.98,14.81,12.38,13.28,22.94-1.28,8.85-4.57,17.12-8.57,25.41l-27.24,56.54c-3.91,8.11-6.53,16.3-8.61,25.02-.87,3.66-.09,7.72,1.02,11.14,3.71,11.42,19.34,2.76,27.87-3.95,16.62-13.06,31.54-28.35,43.89-45.61,7.47-10.44,13.02-21.5,18.4-33.04l19.4-41.52c8.05-17.24,24.62-37.81,44.19-27.41,5.15,2.74,9.41,9.02,9.7,14.92s-3.34,10-5.54,14.75l-12.3,26.59-19.4,42.45c-6.09,13.33-14.75,40.73-10.01,54.16,15.98,11.45,35.12-2.77,47.1-15.7,10.61-11.44,20.31-23.59,28.91-36.71,9.62-14.68,16.19-30.53,23.84-46.24l22.8-46.87c7.95-10.38,23.47-12.35,34.07-5.01,12.82,10.05,3,26.54-2.82,41.09-3.22,8.04-7.75,15.29-9.33,24.54l24.59-25.09c21.86-22.3,58.31-50.16,90.6-43.58,8.13,1.66,15.46,5.46,20.56,12.2,9.03,11.92,5.23,30.74,0,44.65l-13.27,28.92-10.62,23.49c-5.29,11.7-14.71,29.92-13.09,41.59,1.8,12.98,20.28-.14,28.6-8.02,21.79-20.63,38.24-45.87,51.22-72.88l6.95-16.15c3.18-8.79,7.73-16.25,13.07-23.84,3.59-5.11,7.72-8.96,14.23-9.93,7.33-1.1,14.9.14,21.05,4.21,6.56,4.34,8.67,11.53,6.12,18.74-3.77,10.66-8.94,20.21-13.56,30.58l-18.78,42.14c-4.52,12.28-11.49,33.43-.33,40.82,3.88.89,7.66.54,11.63-.17,5.14-2.34,10.8-3.65,15.57-6.49l11.53-6.86c17.75-14.33,34.04-30.02,49.61-46.66,4.1-4.38,12.23-15.1,18.08-10.09,12.43,10.66-24.49,46.56-34.3,56.68-11.47,11.84-24,22.5-37.47,31.98Z" fill="#1d39bb"/><path d="M502.2,159.76c-8.01,7.39-19.63,8.15-29.3,4.24-10.37-4.2-15.14-13.95-13.5-24.66,2.02-13.22,12.63-21.94,26.08-21.34,12.41.55,22.7,9.13,23.63,21.83.54,7.35-1.17,14.62-6.92,19.93Z" fill="#ffb705"/><path d="M1111.57,237.65c-9.59,3.15-20.06.77-27.08-6.08-4.89-4.78-5.6-11.11-4.45-17.46,2.22-12.3,12.62-19.73,25.16-18.51,5.9.58,11.72,3.23,15.33,7.47,4.34,5.09,5.16,11.35,4.26,17.78-1.09,7.72-5.4,14.24-13.22,16.81Z" fill="#ffb705"/><path d="M237.06,394.12c-19.49,13.9-39.26,26.8-59.63,38.94-34.49,20.55-65.82,45.5-92.12,75.88-12.49,14.44-23.43,29.94-33.48,46.02-.68,1.09-2.05,1.77-2.92,1.72-1.02-.06-2.16-1.3-2.42-2.84l-22.8-133.81C13.35,359.39,1.19,292.52.07,231.46c-.53-28.78,1.86-56.81,7.64-85.02,9.21-44.92,33.99-85.9,70.41-113.89C98.31,17.04,121.62,6.03,146.84,1.94c16.38-2.66,33.09-2.71,49.31.58,12.49,2.53,23.96,7.46,35.5,12.34,10.2,4.31,17.62,11.34,24.81,19.45,10.65,12.01,18.01,25.66,21.41,41.51,6.34,29.59.66,59.61-15.78,85.68,11.34,2.9,21.37,6.07,30.6,12.22,21.57,14.39,35.98,37.34,40.17,63,6.01,69.44-42.99,119.7-95.82,157.39ZM207.41,283.48c9.54-16.54,14.84-39.19.68-53.05s-40.72-12.66-60.16-9.32c.21-3.92,1.99-6.92,3.79-9.97l12.59-21.43c13.48-26.28,30.19-53.77,20.96-84.02-3.82-12.51-14.45-19.62-27.22-18.72-20.35,1.44-38.78,18.1-49.82,34.73-9.46,14.25-16.22,30.15-19.43,47.18-14.85,78.84-14.79,160.82-9.56,240.53,4.45-.99,6.6-3.75,8.9-6.62l17.08-21.29c20-20.87,42-39.08,64.06-57.84,15.32-10.79,28.69-23.64,38.13-40.2Z" fill="#ffb705"/><path d="M207.41,283.48c-9.44,16.55-22.81,29.4-38.13,40.2-22.06,18.76-44.06,36.97-64.06,57.84l-17.08,21.29c-2.3,2.87-4.45,5.63-8.9,6.62-5.23-79.72-5.29-161.7,9.56-240.53,3.21-17.03,9.97-32.94,19.43-47.18,11.04-16.64,29.47-33.29,49.82-34.73,12.77-.9,23.4,6.21,27.22,18.72,9.23,30.25-7.48,57.74-20.96,84.02l-12.59,21.43c-1.8,3.06-3.58,6.05-3.79,9.97,19.43-3.34,45.78-4.76,60.16,9.32s8.86,36.51-.68,53.05Z" fill="#1d39bb"/></svg>